<svg id="Layer_1" data-name="Layer 1" xmlns="http://www.w3.org/2000/svg" viewBox="0 0 100 100"><defs><style>.cls-1{fill:#65cbb7;}.cls-2{fill:#fff;}</style></defs><path class="cls-1" d="M93.25,25A50.68,50.68,0,0,0,75,6.75,48.47,48.47,0,0,0,50,0,48.47,48.47,0,0,0,25,6.75,50.68,50.68,0,0,0,6.75,25,48.47,48.47,0,0,0,0,50,48.47,48.47,0,0,0,6.75,75,50.68,50.68,0,0,0,25,93.25,48.47,48.47,0,0,0,50,100a48.47,48.47,0,0,0,25-6.75A50.68,50.68,0,0,0,93.25,75,48.47,48.47,0,0,0,100,50,48.47,48.47,0,0,0,93.25,25Z"/><path class="cls-2" d="M78.23,39.31,43.55,73.79a2.5,2.5,0,0,1-1.82.81,1.91,1.91,0,0,1-1.61-.81L21.77,55.44a2.51,2.51,0,0,1-.8-1.81,1.92,1.92,0,0,1,.8-1.61l4.64-4.64A2.19,2.19,0,0,1,28,46.77a3,3,0,0,1,1.82.61l11.89,12.3L70.36,31.25a2.2,2.2,0,0,1,1.62-.6,2.49,2.49,0,0,1,1.81.8l4.44,4.44A2.51,2.51,0,0,1,79,37.7,1.92,1.92,0,0,1,78.23,39.31Z"/></svg>