<svg id="Layer_1" data-name="Layer 1" xmlns="http://www.w3.org/2000/svg" viewBox="0 0 100 100"><defs><style>.cls-1{fill:#e6e6e6;}</style></defs><path class="cls-1" d="M50,7a41.14,41.14,0,0,1,21.45,5.79A43.15,43.15,0,0,1,87.21,28.55,41.14,41.14,0,0,1,93,50a41.14,41.14,0,0,1-5.79,21.45A43.15,43.15,0,0,1,71.45,87.21,41.14,41.14,0,0,1,50,93a41.14,41.14,0,0,1-21.45-5.79A43.15,43.15,0,0,1,12.79,71.45,41.14,41.14,0,0,1,7,50a41.14,41.14,0,0,1,5.79-21.45A43.15,43.15,0,0,1,28.55,12.79,41.14,41.14,0,0,1,50,7m0-7A48.47,48.47,0,0,0,25,6.75,50.68,50.68,0,0,0,6.75,25,48.47,48.47,0,0,0,0,50,48.47,48.47,0,0,0,6.75,75,50.68,50.68,0,0,0,25,93.25,48.47,48.47,0,0,0,50,100a48.47,48.47,0,0,0,25-6.75A50.68,50.68,0,0,0,93.25,75,48.47,48.47,0,0,0,100,50a48.47,48.47,0,0,0-6.75-25A50.68,50.68,0,0,0,75,6.75,48.47,48.47,0,0,0,50,0Z"/><path class="cls-1" d="M55.47,75.86a7.46,7.46,0,1,1,2.28-5.37A7.36,7.36,0,0,1,55.47,75.86Zm11.2-27.4a25.14,25.14,0,0,1-6,4.37,15.89,15.89,0,0,0-2.91,2A2.66,2.66,0,0,0,56.47,57v1.09a2.15,2.15,0,0,1-2.18,2.18H45.91a2.17,2.17,0,0,1-2.18-2.18V56.47a9.67,9.67,0,0,1,2.91-7.1,27.32,27.32,0,0,1,5.46-3.82l.37-.19a34.59,34.59,0,0,0,3.82-2.54,4,4,0,0,0,1.28-2.92,4.26,4.26,0,0,0-2.28-3.64,9.28,9.28,0,0,0-5.1-1.45,8.77,8.77,0,0,0-4.82,1.27,19.14,19.14,0,0,0-4,4.19A2.81,2.81,0,0,1,40,41a1.82,1.82,0,0,1-1.55-.37l-5.1-3.82a2,2,0,0,1-.82-1.46,2.91,2.91,0,0,1,.28-1.64,24.16,24.16,0,0,1,7.83-7.37,21.19,21.19,0,0,1,10.55-2.46,19.33,19.33,0,0,1,8.74,2.19,19,19,0,0,1,7,5.82,13.63,13.63,0,0,1,2.64,8.2A12.58,12.58,0,0,1,66.67,48.46Z"/></svg>