<svg id="Layer_1" data-name="Layer 1" xmlns="http://www.w3.org/2000/svg" viewBox="0 0 100 100"><defs><style>.cls-1{fill:#e6e6e6;}.cls-2{fill:#fff;}</style></defs><path class="cls-1" d="M93.25,25A50.68,50.68,0,0,0,75,6.75,48.47,48.47,0,0,0,50,0,48.47,48.47,0,0,0,25,6.75,50.68,50.68,0,0,0,6.75,25,48.47,48.47,0,0,0,0,50,48.47,48.47,0,0,0,6.75,75,50.68,50.68,0,0,0,25,93.25,48.47,48.47,0,0,0,50,100a48.47,48.47,0,0,0,25-6.75A50.68,50.68,0,0,0,93.25,75,48.47,48.47,0,0,0,100,50,48.47,48.47,0,0,0,93.25,25Z"/><path class="cls-2" d="M56,78.53a8.28,8.28,0,1,1,2.52-6A8.15,8.15,0,0,1,56,78.53Zm12.4-30.34A27.68,27.68,0,0,1,61.69,53a18.09,18.09,0,0,0-3.22,2.22,2.93,2.93,0,0,0-1.41,2.42v1.21a2.33,2.33,0,0,1-.71,1.71,2.3,2.3,0,0,1-1.71.71H45.36a2.3,2.3,0,0,1-1.71-.71,2.33,2.33,0,0,1-.71-1.71V57.06a10.72,10.72,0,0,1,3.23-7.87,29.9,29.9,0,0,1,6-4.23l.4-.2a36.5,36.5,0,0,0,4.23-2.82,4.44,4.44,0,0,0,1.42-3.23,4.7,4.7,0,0,0-2.52-4,10.24,10.24,0,0,0-5.65-1.62,9.67,9.67,0,0,0-5.34,1.42,21.13,21.13,0,0,0-4.44,4.63,3,3,0,0,1-1.51.81,2,2,0,0,1-1.71-.4l-5.65-4.24a2.2,2.2,0,0,1-.91-1.61,3.34,3.34,0,0,1,.31-1.82,26.76,26.76,0,0,1,8.67-8.16A23.42,23.42,0,0,1,51.21,21a21.39,21.39,0,0,1,9.68,2.42,21,21,0,0,1,7.76,6.45,15.07,15.07,0,0,1,2.92,9.07A13.94,13.94,0,0,1,68.35,48.19Z"/></svg>