<svg id="Layer_1" data-name="Layer 1" xmlns="http://www.w3.org/2000/svg" viewBox="0 0 100 100"><defs><style>.cls-1{fill:#f58123;}</style></defs><path class="cls-1" d="M50,7a41.16,41.16,0,0,1,21.45,5.79A43.15,43.15,0,0,1,87.21,28.55,41.14,41.14,0,0,1,93,50a41.14,41.14,0,0,1-5.79,21.45A43.15,43.15,0,0,1,71.45,87.21,41.16,41.16,0,0,1,50,93a41.14,41.14,0,0,1-21.45-5.79A43.15,43.15,0,0,1,12.79,71.45,41.14,41.14,0,0,1,7,50a41.14,41.14,0,0,1,5.79-21.45A43.15,43.15,0,0,1,28.55,12.79,41.14,41.14,0,0,1,50,7m0-7A48.47,48.47,0,0,0,25,6.75,50.68,50.68,0,0,0,6.75,25,48.47,48.47,0,0,0,0,50,48.47,48.47,0,0,0,6.75,75,50.68,50.68,0,0,0,25,93.25,48.47,48.47,0,0,0,50,100a48.5,48.5,0,0,0,25-6.75A50.68,50.68,0,0,0,93.25,75,48.47,48.47,0,0,0,100,50a48.47,48.47,0,0,0-6.75-25A50.68,50.68,0,0,0,75,6.75,48.5,48.5,0,0,0,50,0Z"/><path class="cls-1" d="M55.38,72A7.61,7.61,0,1,0,44.62,61.22,7.61,7.61,0,1,0,55.38,72ZM53.82,54.93H46.18a2.21,2.21,0,0,1-2.19-2L41.92,28.11a2.2,2.2,0,0,1,2.19-2.38H55.89a2.2,2.2,0,0,1,2.19,2.38L56,52.92A2.21,2.21,0,0,1,53.82,54.93Z"/></svg>