<svg id="Layer_1" data-name="Layer 1" xmlns="http://www.w3.org/2000/svg" viewBox="0 0 100 100"><defs><style>.cls-1{fill:#f58123;}.cls-2{fill:#fff;}</style></defs><path class="cls-1" d="M93.25,25A50.68,50.68,0,0,0,75,6.75,48.47,48.47,0,0,0,50,0,48.47,48.47,0,0,0,25,6.75,50.68,50.68,0,0,0,6.75,25,48.47,48.47,0,0,0,0,50,48.47,48.47,0,0,0,6.75,75,50.68,50.68,0,0,0,25,93.25,48.47,48.47,0,0,0,50,100a48.47,48.47,0,0,0,25-6.75A50.68,50.68,0,0,0,93.25,75,48.47,48.47,0,0,0,100,50,48.47,48.47,0,0,0,93.25,25Z"/><path class="cls-2" d="M56,73.29a8.41,8.41,0,1,0-11.9-11.9A8.41,8.41,0,1,0,56,73.29Z"/><path class="cls-2" d="M54.22,54.44H45.77a2.43,2.43,0,0,1-2.41-2.22L41.07,24.8a2.42,2.42,0,0,1,2.42-2.62h13a2.41,2.41,0,0,1,2.41,2.62L56.64,52.22A2.43,2.43,0,0,1,54.22,54.44Z"/></svg>