<svg id="Layer_1" data-name="Layer 1" xmlns="http://www.w3.org/2000/svg" viewBox="0 0 100 100"><defs><style>.cls-1{fill:#ea5a5a;}.cls-2{fill:#fff;}</style></defs><path class="cls-1" d="M75,6.75A50.68,50.68,0,0,1,93.25,25,48.47,48.47,0,0,1,100,50a48.47,48.47,0,0,1-6.75,25A50.68,50.68,0,0,1,75,93.25,48.47,48.47,0,0,1,50,100a48.47,48.47,0,0,1-25-6.75A50.68,50.68,0,0,1,6.75,75,48.47,48.47,0,0,1,0,50,48.47,48.47,0,0,1,6.75,25,50.68,50.68,0,0,1,25,6.75,48.47,48.47,0,0,1,50,0,48.47,48.47,0,0,1,75,6.75Z"/><path class="cls-2" d="M71.17,35.69a2.17,2.17,0,0,0-.61-1.62l-4.63-4.63a2.17,2.17,0,0,0-1.62-.61,2.91,2.91,0,0,0-1.81.61L50,41.94,37.5,29.44a2.91,2.91,0,0,0-1.81-.61,2.17,2.17,0,0,0-1.62.61l-4.63,4.63a2.17,2.17,0,0,0-.61,1.62,2.91,2.91,0,0,0,.61,1.81L41.94,50,29.44,62.5a2.91,2.91,0,0,0-.61,1.81,2.17,2.17,0,0,0,.61,1.62l4.63,4.63a2.17,2.17,0,0,0,1.62.61,2.91,2.91,0,0,0,1.81-.61L50,58.06l12.5,12.5a2.91,2.91,0,0,0,1.81.61,2.17,2.17,0,0,0,1.62-.61l4.63-4.63a2.17,2.17,0,0,0,.61-1.62,2.91,2.91,0,0,0-.61-1.81L58.06,50l12.5-12.5A2.91,2.91,0,0,0,71.17,35.69Z"/></svg>